<?xml version="1.0" encoding="UTF-8" standalone="no"?>
<svg
   xmlns:dc="http://purl.org/dc/elements/1.1/"
   xmlns:cc="http://creativecommons.org/ns#"
   xmlns:rdf="http://www.w3.org/1999/02/22-rdf-syntax-ns#"
   xmlns:svg="http://www.w3.org/2000/svg"
   xmlns="http://www.w3.org/2000/svg"
   xmlns:sodipodi="http://sodipodi.sourceforge.net/DTD/sodipodi-0.dtd"
   xmlns:inkscape="http://www.inkscape.org/namespaces/inkscape"
   version="1.1"
   x="0px"
   y="0px"
   viewBox="0 0 110 110"
   enable-background="new 0 0 100 100"
   xml:space="preserve"
   id="svg2"
   inkscape:version="0.91 r13725"
   sodipodi:docname="noun_670577_cc.svg"
   width="110"
   height="110"><metadata
     id="metadata14"><rdf:RDF><cc:Work
         rdf:about=""><dc:format>image/svg+xml</dc:format><dc:type
           rdf:resource="http://purl.org/dc/dcmitype/StillImage" /><dc:title></dc:title></cc:Work></rdf:RDF></metadata><defs
     id="defs12" /><sodipodi:namedview
     pagecolor="#ffffff"
     bordercolor="#666666"
     borderopacity="1"
     objecttolerance="10"
     gridtolerance="10"
     guidetolerance="10"
     inkscape:pageopacity="0"
     inkscape:pageshadow="2"
     inkscape:window-width="1026"
     inkscape:window-height="683"
     id="namedview10"
     showgrid="false"
     inkscape:zoom="1.888"
     inkscape:cx="0.19002393"
     inkscape:cy="62.5"
     inkscape:window-x="0"
     inkscape:window-y="0"
     inkscape:window-maximized="0"
     inkscape:current-layer="svg2" /><path
     d="M 55,5 C 27.385556,5 5,27.384444 5,55 5,82.615556 27.385556,105 55,105 82.615556,105 105,82.615556 105,55 105,27.384444 82.615556,5 55,5 Z m 23.863333,74.9 c -2.63,2.63 -6.681111,3.47 -10.301111,2.467778 0,0 -12.443333,-2.01 -25.68,-15.247778 -13.24,-13.237778 -15.248889,-25.681111 -15.248889,-25.681111 -1.002222,-3.62 -0.162222,-7.668889 2.467778,-10.3 6.907778,-6.91 11.382222,-3.542222 15.438889,1.384444 3.042222,3.695556 2.99,6.495556 0.315556,10.121111 -0.481112,0.653334 -2.278889,2.608889 -2.278889,2.608889 -0.691111,0.748889 -1.06,2.172223 -0.821111,3.164445 0,0 0.843333,3.45 8.032222,10.751111 7.331111,7.232222 10.796666,8.077778 10.796666,8.077778 0.992223,0.238889 2.415556,-0.13 3.166667,-0.821111 0,0 1.954445,-1.796667 2.606667,-2.28 3.628889,-2.672223 6.427778,-2.725556 10.121111,0.316666 4.924444,4.055556 8.291111,8.53 1.384444,15.437778 z"
     id="path4"
     inkscape:connector-curvature="0" /></svg>