<?xml version="1.0" encoding="UTF-8" standalone="no"?>
<svg
   xmlns:dc="http://purl.org/dc/elements/1.1/"
   xmlns:cc="http://creativecommons.org/ns#"
   xmlns:rdf="http://www.w3.org/1999/02/22-rdf-syntax-ns#"
   xmlns:svg="http://www.w3.org/2000/svg"
   xmlns="http://www.w3.org/2000/svg"
   xmlns:sodipodi="http://sodipodi.sourceforge.net/DTD/sodipodi-0.dtd"
   xmlns:inkscape="http://www.inkscape.org/namespaces/inkscape"
   version="1.1"
   x="0px"
   y="0px"
   viewBox="0 0 110 110"
   xml:space="preserve"
   id="svg2"
   inkscape:version="0.91 r13725"
   sodipodi:docname="noun_697832_cc.svg"
   width="110"
   height="110"><metadata
     id="metadata16"><rdf:RDF><cc:Work
         rdf:about=""><dc:format>image/svg+xml</dc:format><dc:type
           rdf:resource="http://purl.org/dc/dcmitype/StillImage" /><dc:title></dc:title></cc:Work></rdf:RDF></metadata><defs
     id="defs14" /><sodipodi:namedview
     pagecolor="#ffffff"
     bordercolor="#666666"
     borderopacity="1"
     objecttolerance="10"
     gridtolerance="10"
     guidetolerance="10"
     inkscape:pageopacity="0"
     inkscape:pageshadow="2"
     inkscape:window-width="1129"
     inkscape:window-height="692"
     id="namedview12"
     showgrid="false"
     inkscape:zoom="1.888"
     inkscape:cx="-16.207627"
     inkscape:cy="62.5"
     inkscape:window-x="0"
     inkscape:window-y="0"
     inkscape:window-maximized="0"
     inkscape:current-layer="svg2" /><g
     id="g4"
     transform="matrix(1.1123425,0,0,1.1111111,-1.0066505,-0.555555)"><path
       d="m 50.4,5 c -24.9,0 -45,20.1 -45,45 0,1.6 0.1,3.1 0.2,4.6 0.1,0.7 0.2,1.4 0.3,2.1 0,0.2 0.1,0.5 0.1,0.7 0.1,0.5 0.2,0.9 0.2,1.4 0.1,0.3 0.1,0.6 0.2,0.9 0.1,0.4 0.2,0.8 0.3,1.2 0.1,0.3 0.2,0.6 0.3,0.9 0.1,0.4 0.2,0.7 0.3,1.1 0.1,0.3 0.2,0.7 0.3,1 0.1,0.3 0.2,0.7 0.3,1 0.1,0.3 0.2,0.7 0.4,1 0.1,0.3 0.2,0.6 0.3,0.9 0.1,0.4 0.3,0.7 0.4,1.1 0.1,0.2 0.2,0.5 0.3,0.7 0.2,0.4 0.4,0.8 0.5,1.2 0.1,0.2 0.2,0.3 0.3,0.5 1.1,2.2 2.4,4.3 3.8,6.3 0,0 0,0 0,0 0.4,0.5 0.7,1 1.1,1.4 0,0.1 0.1,0.1 0.1,0.2 0.4,0.4 0.7,0.9 1.1,1.3 0.1,0.1 0.1,0.1 0.2,0.2 0.4,0.4 0.8,0.9 1.2,1.3 0.1,0.1 0.1,0.1 0.2,0.2 0.4,0.4 0.8,0.8 1.2,1.2 0,0 0,0 0.1,0.1 0,0 0,0 0,0 8.1,7.7 19.1,12.5 31.3,12.5 12.2,0 23.1,-4.8 31.2,-12.6 0,0 0,0 0,0 0,0 0,0 0.1,-0.1 0.4,-0.4 0.8,-0.8 1.2,-1.2 C 83,81 83,81 83.1,80.9 c 0.4,-0.4 0.8,-0.8 1.2,-1.3 0.1,-0.1 0.1,-0.1 0.2,-0.2 0.4,-0.4 0.7,-0.9 1.1,-1.3 0,-0.1 0.1,-0.1 0.1,-0.2 0.4,-0.5 0.7,-0.9 1.1,-1.4 0,0 0,0 0,0 1.4,-2 2.7,-4.1 3.8,-6.2 0.1,-0.2 0.2,-0.3 0.3,-0.5 0.2,-0.4 0.4,-0.8 0.5,-1.2 0.1,-0.2 0.2,-0.5 0.3,-0.7 0.2,-0.4 0.3,-0.7 0.4,-1.1 0.1,-0.3 0.2,-0.6 0.3,-0.9 0.1,-0.3 0.3,-0.7 0.4,-1 0.1,-0.3 0.2,-0.7 0.3,-1 0.1,-0.3 0.2,-0.7 0.3,-1 0.1,-0.4 0.2,-0.7 0.3,-1.1 0.1,-0.3 0.2,-0.6 0.3,-0.9 0.1,-0.4 0.2,-0.8 0.3,-1.2 0.1,-0.3 0.1,-0.6 0.2,-0.9 0.1,-0.5 0.2,-0.9 0.2,-1.4 0,-0.2 0.1,-0.5 0.1,-0.7 0.1,-0.7 0.2,-1.4 0.3,-2.1 0.2,-1.5 0.2,-3 0.2,-4.6 C 95.4,25.1 75.2,5 50.4,5 Z m 0,84 C 39.8,89 30.2,84.8 23.2,77.9 c 2.5,-2.2 5.4,-3.8 8.6,-4.8 L 38.9,71 c 2.4,-0.7 3.7,-3.3 2.9,-5.7 C 41.6,64.8 41.4,64.4 41,64 L 36.2,58.6 C 32.7,54.6 31.1,49.3 31.9,44 L 33,36.7 c 0.8,-4.9 3.5,-9.2 7.6,-12 5.9,-4 13.6,-4.1 19.6,-0.2 l 0.1,0 c 4.5,2.9 7.5,7.6 8.1,12.9 l 0.8,7 c 0.6,5.1 -1,10.1 -4.4,13.9 L 59.7,64 c -0.3,0.4 -0.6,0.9 -0.8,1.3 -0.8,2.4 0.5,5 2.9,5.7 l 7.1,2.1 c 3.2,1 6.2,2.6 8.6,4.8 C 70.5,84.8 60.9,89 50.4,89 Z"
       id="path6"
       inkscape:connector-curvature="0" /></g></svg>