<?xml version="1.0" encoding="UTF-8" standalone="no"?>
<svg
   xmlns:dc="http://purl.org/dc/elements/1.1/"
   xmlns:cc="http://creativecommons.org/ns#"
   xmlns:rdf="http://www.w3.org/1999/02/22-rdf-syntax-ns#"
   xmlns:svg="http://www.w3.org/2000/svg"
   xmlns="http://www.w3.org/2000/svg"
   xmlns:sodipodi="http://sodipodi.sourceforge.net/DTD/sodipodi-0.dtd"
   xmlns:inkscape="http://www.inkscape.org/namespaces/inkscape"
   version="1.1"
   x="0px"
   y="0px"
   viewBox="-22 23.5 110 110"
   xml:space="preserve"
   id="svg2"
   inkscape:version="0.91 r13725"
   sodipodi:docname="noun_532862_cc.svg"
   width="110"
   height="110"><metadata
     id="metadata46"><rdf:RDF><cc:Work
         rdf:about=""><dc:format>image/svg+xml</dc:format><dc:type
           rdf:resource="http://purl.org/dc/dcmitype/StillImage" /><dc:title></dc:title></cc:Work></rdf:RDF></metadata><defs
     id="defs44" /><sodipodi:namedview
     pagecolor="#ffffff"
     bordercolor="#666666"
     borderopacity="1"
     objecttolerance="10"
     gridtolerance="10"
     guidetolerance="10"
     inkscape:pageopacity="0"
     inkscape:pageshadow="2"
     inkscape:window-width="1033"
     inkscape:window-height="766"
     id="namedview42"
     showgrid="false"
     inkscape:zoom="1.9831933"
     inkscape:cx="-11.712928"
     inkscape:cy="59.5"
     inkscape:window-x="0"
     inkscape:window-y="0"
     inkscape:window-maximized="0"
     inkscape:current-layer="svg2" /><path
     d="m 18.609244,89.634454 12.289916,0 0,-9.033614 -13.550421,0 c 0.105043,3.151261 0.525211,6.197479 1.260505,9.033614 z"
     id="path4"
     inkscape:connector-curvature="0" /><path
     d="m 17.348739,75.87395 13.550421,0 0,-9.033614 -12.289916,0 c -0.735294,2.731093 -1.155462,5.777311 -1.260505,9.033614 z"
     id="path6"
     inkscape:connector-curvature="0" /><path
     d="m 30.89916,107.07143 0,-13.235296 -11.134454,0 c 2.521008,6.932776 6.512605,11.869746 11.134454,13.235296 z"
     id="path8"
     inkscape:connector-curvature="0" /><path
     d="m 8.6302521,93.836134 c 2.9411769,4.621849 7.1428569,8.298316 12.0798319,10.714286 -2.205882,-2.94118 -3.991597,-6.512605 -5.357143,-10.714286 l -6.7226889,0 z"
     id="path10"
     inkscape:connector-curvature="0" /><path
     d="m 13.042017,75.87395 c 0.105042,-3.151261 0.52521,-6.197479 1.155462,-9.033614 l -7.8781513,0 C 5.1638655,69.676471 4.3235294,72.722689 4.1134454,75.87395 l 0,0 8.9285716,0 z"
     id="path12"
     inkscape:connector-curvature="0" /><path
     d="m 13.042017,80.60084 -8.9285716,0 0,0 c 0.210084,3.151261 1.0504201,6.197479 2.2058823,9.033614 l 7.8781513,0 C 13.567227,86.798319 13.252101,83.752101 13.042017,80.60084 Z"
     id="path14"
     inkscape:connector-curvature="0" /><path
     d="m 20.710084,51.819328 c -4.936975,2.310924 -9.138655,6.092437 -12.0798319,10.714285 l 6.7226889,0 c 1.365546,-4.20168 3.151261,-7.773109 5.357143,-10.714285 z"
     id="path16"
     inkscape:connector-curvature="0" /><path
     d="m 19.764706,62.533613 11.029412,0 0,-13.235294 c -4.621849,1.365547 -8.508404,6.302521 -11.029412,13.235294 z"
     id="path18"
     inkscape:connector-curvature="0" /><path
     d="m 52.222689,89.634454 7.878151,0 c 1.155463,-2.836135 1.995799,-5.882353 2.205883,-9.033614 l -8.928572,0 c -0.105042,3.151261 -0.52521,6.197479 -1.155462,9.033614 z"
     id="path20"
     inkscape:connector-curvature="0" /><path
     d="m 53.378151,75.87395 8.928572,0 c -0.210084,-3.151261 -1.05042,-6.197479 -2.205883,-9.033614 l -7.878151,0 c 0.630252,2.836135 1.05042,5.777311 1.155462,9.033614 z"
     id="path22"
     inkscape:connector-curvature="0" /><path
     d="m 45.815126,51.819328 c 2.205882,2.941176 3.991597,6.512605 5.357143,10.714285 l 6.722689,0 C 54.953782,57.911765 50.752101,54.130252 45.815126,51.819328 Z"
     id="path24"
     inkscape:connector-curvature="0" /><path
     d="m 35.62605,49.298319 0,13.235294 11.134454,0 C 44.344538,55.495798 40.352941,50.558824 35.62605,49.298319 Z"
     id="path26"
     inkscape:connector-curvature="0" /><path
     d="m 33,28.5 c -27.6260504,0 -50,22.37395 -50,50 0,27.62605 22.3739496,50 50,50 27.62605,0 50,-22.37395 50,-50 0,-27.62605 -22.37395,-50 -50,-50 z m 0.210084,83.29832 c -18.592437,0 -33.61344534,-15.021009 -33.61344534,-33.613446 0,-17.962185 14.18067234,-32.668067 31.93277334,-33.508403 0.52521,0 1.155462,0 1.680672,0 0.52521,0 1.155462,0 1.680672,0 17.752101,0.840336 31.932773,15.546218 31.932773,33.508403 0,18.592437 -15.021008,33.613446 -33.613445,33.613446 z"
     id="path28"
     inkscape:connector-curvature="0" /><path
     d="m 48.021008,66.735294 -12.394958,0 0,9.033614 13.655463,0 c -0.210084,-3.151261 -0.630252,-6.197479 -1.260505,-9.033614 z"
     id="path30"
     inkscape:connector-curvature="0" /><path
     d="m 49.281513,80.60084 -13.655463,0 0,9.033614 12.394958,0 c 0.630253,-2.836135 1.050421,-5.882353 1.260505,-9.033614 z"
     id="path32"
     inkscape:connector-curvature="0" /><path
     d="m 45.815126,104.55042 c 4.936975,-2.31092 9.138656,-6.092437 12.079832,-10.714286 l -6.722689,0 c -1.365546,4.201681 -3.151261,7.878156 -5.357143,10.714286 z"
     id="path34"
     inkscape:connector-curvature="0" /><path
     d="m 35.62605,93.836134 0,13.235296 c 4.726891,-1.26051 8.718488,-6.19748 11.134454,-13.235296 0,0 -11.134454,0 -11.134454,0 z"
     id="path36"
     inkscape:connector-curvature="0" /></svg>